# xmcd CD database file
#
# Track frame offsets:
#	150
#	33483
#	48382
#	58492
#	70449
#	92024
#	126316
#	160472
#
# Disc length: 2736 seconds
#
# Revision: 0
# Processed by: cddbd v1.5.2PL0 Copyright (c) Steve Scherf et al.
# Submitted via: CDex 1.70beta2
#
DISCID=780aae08
DTITLE=This Moment - Beautiful Line
DYEAR=2001
DGENRE=Jazz
TTITLE0=Exercise #1
TTITLE1=Microbial Girl
TTITLE2=Handshake
TTITLE3=Frederick
TTITLE4=BP
TTITLE5=An Invitation To Italian
TTITLE6=Blood Berries And Silver
TTITLE7=Beautiful Line
EXTD=YEAR: 2001
EXTT0=
EXTT1=
EXTT2=
EXTT3=
EXTT4=
EXTT5=
EXTT6=
EXTT7=
PLAYORDER=
